# Blender 5.0.1
# www.blender.org
mtllib parejita.mtl
o WhatsApp_Image_2025-12-03_at_3.08.44_AM
v -0.950947 4.167365 0.693283
v -0.950947 4.167365 -0.650929
v 0.468039 6.709647 0.693283
v 0.468039 6.709647 -0.650929
vn 0.8732 -0.4874 -0.0000
vt 0.000000 0.000000
vt 1.000000 0.000000
vt 1.000000 1.000000
vt 0.000000 1.000000
s 0
usemtl WhatsApp_Image_2025-12-03_at_3.08.44_AM
f 1/1/1 2/2/1 4/3/1 3/4/1
o WhatsApp_Image_2025-12-04_at_3.11.05_AM
v -1.424094 0.225458 2.889402
v -1.424094 0.225458 1.546482
v -1.424094 3.136939 2.889402
v -1.424094 3.136939 1.546482
vn 1.0000 -0.0000 -0.0000
vt 0.000000 0.000000
vt 1.000000 0.000000
vt 1.000000 1.000000
vt 0.000000 1.000000
s 0
usemtl WhatsApp_Image_2025-12-04_at_3.11.05_AM
f 5/5/2 6/6/2 8/7/2 7/8/2
o WhatsApp_Image_2025-12-09_at_2.39.13_AM
v 0.861863 0.138501 -1.485122
v 0.861863 0.138501 -2.828043
v 0.861863 3.049982 -1.485122
v 0.861863 3.049982 -2.828043
vn 1.0000 -0.0000 -0.0000
vt 0.000000 0.000000
vt 1.000000 0.000000
vt 1.000000 1.000000
vt 0.000000 1.000000
s 0
usemtl WhatsApp_Image_2025-12-09_at_2.39.13_AM
f 9/9/3 10/10/3 12/11/3 11/12/3
o WhatsApp_Image_2025-12-08_at_11.23.10_PM_(1)
v -0.198281 0.916931 0.991255
v -0.198281 0.916931 -0.991255
v -0.198281 3.009880 0.991255
v -0.198281 3.009880 -0.991255
vn 1.0000 -0.0000 -0.0000
vt 0.000000 0.000000
vt 1.000000 0.000000
vt 1.000000 1.000000
vt 0.000000 1.000000
s 0
usemtl WhatsApp_Image_2025-12-08_at_11.23.10_PM_(1)
f 13/13/4 14/14/4 16/15/4 15/16/4
o WhatsApp_Image_2025-12-08_at_11.23.10_PM
v 3.256033 0.184588 -0.933744
v 3.256266 0.184588 0.933744
v 3.256032 2.700511 -0.933744
v 3.256266 2.700511 0.933744
vn -1.0000 -0.0000 0.0001
vt 0.000000 0.000000
vt 1.000000 0.000000
vt 1.000000 1.000000
vt 0.000000 1.000000
s 0
usemtl WhatsApp_Image_2025-12-08_at_11.23.10_PM
f 17/17/5 18/18/5 20/19/5 19/20/5
