# Blender 5.0.1
# www.blender.org
mtllib parejita.mtl.mtl
g Plane_Mesh
v -1.238890 3.974150 0.685638
v -1.326625 3.965271 -0.940642
v -1.238890 7.024386 0.668985
v -1.326624 7.015507 -0.957296
vn 0.9985 -0.0003 -0.0539
vt 1.000000 0.000000
vt 0.000000 1.000000
vt 0.000000 0.000000
vt 1.000000 1.000000
s 0
g off
g Plane_WhatsApp_Image_2025-12-03_at_3.08.44_AM
usemtl WhatsApp_Image_2025-12-03_at_3.08.44_AM
f 2/1/1 3/2/1 1/3/1
f 2/1/1 4/4/1 3/2/1
g Plane.001_Mesh
v -2.186341 0.260542 -1.525862
v -2.274075 0.251662 -3.152143
v -2.186341 3.310778 -1.542516
v -2.274075 3.301899 -3.168796
vn 0.9985 -0.0003 -0.0539
vt 1.000000 0.000000
vt 0.000000 1.000000
vt 0.000000 0.000000
vt 1.000000 1.000000
s 0
g off
g Plane.001_WhatsApp_Image_2025-12-09_at_2.39.13_AM
usemtl WhatsApp_Image_2025-12-09_at_2.39.13_AM
f 6/5/2 7/6/2 5/7/2
f 6/5/2 8/8/2 7/6/2
g Plane.002_Mesh
v 0.571582 0.426723 2.689207
v 0.483848 0.417843 1.062927
v 0.571582 3.476959 2.672554
v 0.483848 3.468080 1.046273
vn 0.9985 -0.0003 -0.0539
vt 1.000000 0.000000
vt 0.000000 1.000000
vt 0.000000 0.000000
vt 1.000000 1.000000
s 0
g off
g Plane.002_WhatsApp_Image_2025-12-04_at_3.11.05_AM
usemtl WhatsApp_Image_2025-12-04_at_3.11.05_AM
f 10/9/3 11/10/3 9/11/3
f 10/9/3 12/12/3 11/10/3
g Plane.003_Mesh
v 1.444801 0.325642 -4.662385
v 1.292387 0.310216 -7.487610
v 1.444801 3.375970 -4.679039
v 1.292387 3.360545 -7.504265
vn 0.9985 -0.0003 -0.0539
vt 1.000000 0.000000
vt 0.000000 1.000000
vt 0.000000 0.000000
vt 1.000000 1.000000
s 0
g off
g Plane.003_WhatsApp_Image_2025-12-08_at_11.23.10_PM_(1)
usemtl WhatsApp_Image_2025-12-08_at_11.23.10_PM_(1)
f 14/13/4 15/14/4 13/15/4
f 14/13/4 16/16/4 15/14/4
g Plane.004_Mesh
v 4.653359 0.269441 5.670116
v 4.522533 0.256200 3.245069
v 4.653359 3.319732 5.653462
v 4.522533 3.306492 3.228415
vn 0.9985 -0.0003 -0.0539
vt 1.000000 0.000000
vt 0.000000 1.000000
vt 0.000000 0.000000
vt 1.000000 1.000000
s 0
g off
g Plane.004_WhatsApp_Image_2025-12-08_at_11.23.10_PM
usemtl WhatsApp_Image_2025-12-08_at_11.23.10_PM
f 18/17/5 19/18/5 17/19/5
f 18/17/5 20/20/5 19/18/5
